<?xml version="1.0" standalone="no"?>
<!DOCTYPE svg PUBLIC "-//W3C//DTD SVG 20010904//EN"
 "http://www.w3.org/TR/2001/REC-SVG-20010904/DTD/svg10.dtd">
<svg version="1.0" xmlns="http://www.w3.org/2000/svg"
 width="640.000000pt" height="640.000000pt" viewBox="0 0 640.000000 640.000000"
 preserveAspectRatio="xMidYMid meet">
<metadata>
Created by potrace 1.11, written by Peter Selinger 2001-2013
</metadata>
<g transform="translate(0.000000,640.000000) scale(0.100000,-0.100000)"
fill="#000000" stroke="none">
<path d="M3368 6125 c-1 -1 -50 -5 -108 -9 -98 -6 -140 -10 -215 -20 -16 -3
-52 -8 -80 -11 -765 -102 -1473 -442 -1986 -954 -171 -171 -216 -223 -328
-374 -208 -282 -361 -572 -480 -910 -39 -112 -95 -312 -107 -381 -2 -17 -7
-38 -9 -46 -8 -29 -31 -169 -43 -257 -9 -75 -9 -682 0 -748 13 -89 38 -230 44
-245 3 -8 8 -28 11 -44 2 -16 13 -54 24 -85 10 -31 16 -42 13 -26 -6 31 -7 37
-18 95 -3 19 -8 46 -11 60 -26 131 -26 523 1 700 52 346 141 639 287 940 125
259 330 557 386 561 71 5 79 -37 30 -158 -62 -155 -140 -401 -163 -513 -29
-149 -29 -146 -46 -250 -30 -189 -33 -614 -5 -745 2 -11 7 -36 10 -55 48 -328
178 -681 359 -969 121 -195 344 -457 506 -596 71 -62 187 -153 240 -190 83
-58 199 -135 204 -135 3 0 29 -14 58 -31 355 -211 910 -389 1358 -434 173 -18
209 -20 202 -14 -4 4 -34 9 -67 12 -230 23 -645 130 -910 237 -287 115 -589
299 -810 494 -284 250 -467 502 -635 871 -48 105 -128 374 -144 480 -4 23 -8
50 -10 60 -26 141 -39 464 -22 573 3 20 8 60 11 87 37 335 172 693 372 985
185 269 414 473 452 402 12 -23 -10 -74 -75 -173 -60 -93 -122 -218 -167 -339
-38 -102 -91 -296 -101 -370 -7 -53 -14 -94 -22 -135 -10 -51 -12 -416 -3
-490 15 -123 18 -140 38 -239 37 -177 118 -387 205 -531 63 -106 204 -283 310
-389 104 -105 129 -128 219 -199 87 -69 250 -173 367 -234 259 -135 568 -230
875 -269 28 -3 61 -8 75 -10 52 -9 458 -12 535 -4 135 15 189 21 210 25 11 3
38 7 60 10 154 20 422 94 622 171 229 88 435 195 653 340 163 109 210 149 90
77 -405 -242 -852 -403 -1270 -458 -154 -21 -462 -27 -609 -12 -82 8 -185 23
-246 37 -22 5 -53 11 -70 14 -77 14 -263 76 -370 124 -164 74 -222 125 -191
167 16 22 76 22 180 1 40 -9 97 -18 127 -21 30 -4 60 -8 67 -10 55 -18 467
-26 617 -12 549 51 1054 250 1508 594 102 78 282 250 352 338 22 28 43 52 46
55 20 15 204 280 222 320 4 8 21 38 37 65 36 60 111 214 152 310 95 224 166
498 195 755 15 129 6 561 -12 590 -2 3 -6 26 -10 50 -11 73 -34 167 -67 270
-127 395 -372 750 -723 1045 -116 98 -115 95 18 -44 369 -386 562 -771 625
-1241 9 -74 9 -378 -1 -465 -26 -221 -139 -588 -201 -650 -21 -21 -54 -35 -70
-29 -30 12 -34 56 -14 154 22 107 33 416 18 510 -5 30 -11 73 -14 95 -44 322
-222 716 -450 999 -219 272 -523 506 -825 637 -53 22 -109 47 -126 54 -56 24
-267 88 -325 98 -14 3 -60 12 -104 21 -136 29 -314 44 -523 44 -110 0 -203 -1
-205 -3z"/>
</g>
</svg>
