<?xml version="1.0" standalone="no"?>
<!DOCTYPE svg PUBLIC "-//W3C//DTD SVG 20010904//EN"
 "http://www.w3.org/TR/2001/REC-SVG-20010904/DTD/svg10.dtd">
<svg version="1.0" xmlns="http://www.w3.org/2000/svg"
 width="1000.000000pt" height="1000.000000pt" viewBox="0 0 1000.000000 1000.000000"
 preserveAspectRatio="xMidYMid meet">
<metadata>
Created by potrace 1.11, written by Peter Selinger 2001-2013
</metadata>
<g transform="translate(0.000000,1000.000000) scale(0.100000,-0.100000)"
fill="#000000" stroke="none">
<path d="M4930 8376 c-107 -28 -196 -121 -214 -226 -3 -14 -5 -456 -5 -982
l-1 -957 -37 -10 c-43 -12 -49 -9 -151 76 -213 179 -356 377 -485 673 -9 19
-28 71 -42 115 -38 112 -58 147 -109 192 -64 56 -136 77 -233 69 -42 -4 -79
-8 -82 -10 -10 -7 -164 -17 -247 -18 -407 -2 -799 140 -1073 388 -83 74 -133
101 -204 107 -52 5 -135 -13 -170 -36 -12 -8 -57 -44 -100 -80 -166 -141 -381
-264 -590 -336 -64 -22 -119 -40 -122 -40 -5 1 -82 -13 -95 -16 -3 -1 -32 -5
-65 -9 -33 -5 -69 -10 -80 -12 -66 -13 -303 -1 -395 20 -111 25 -194 3 -274
-72 -37 -35 -72 -97 -82 -145 -18 -81 6 -175 60 -241 89 -109 172 -264 226
-421 65 -187 88 -345 85 -565 -3 -171 -15 -268 -59 -450 -32 -132 -13 -213 68
-295 40 -41 68 -58 126 -80 435 -162 775 -532 948 -1033 56 -161 109 -222 220
-255 47 -15 106 -15 179 -2 106 19 330 26 445 14 130 -14 173 -22 280 -50 l76
-21 -38 -76 c-36 -75 -85 -199 -95 -245 -2 -12 -9 -42 -15 -66 -30 -122 -38
-358 -16 -496 60 -394 288 -744 623 -958 326 -209 734 -266 1113 -158 52 16
110 35 127 45 18 9 36 17 40 17 16 1 149 73 208 112 104 69 189 145 288 256
l38 42 42 -48 c178 -203 383 -338 633 -416 195 -62 470 -79 644 -42 14 3 40 8
59 11 61 10 206 61 296 105 263 126 490 347 622 605 64 125 97 219 128 364 21
101 24 136 21 285 -3 177 -5 190 -37 319 -25 97 -57 184 -103 275 l-34 69 59
17 c33 9 70 18 82 21 12 2 33 6 47 9 58 12 79 15 155 22 158 14 338 8 481 -15
113 -19 218 11 284 79 41 43 54 69 92 182 163 487 513 868 948 1032 132 50
210 153 210 278 0 21 -9 73 -19 115 -43 170 -55 272 -55 462 -1 223 19 347 86
545 45 132 149 325 213 395 84 90 100 240 37 342 -30 48 -93 104 -138 123 -44
18 -128 25 -169 13 -16 -4 -50 -11 -75 -14 -25 -3 -56 -7 -70 -10 -34 -6 -224
-5 -285 1 -291 32 -584 149 -835 335 -45 34 -101 79 -124 100 -67 62 -135 91
-214 92 -87 2 -145 -23 -226 -99 -63 -60 -165 -136 -225 -169 -108 -60 -143
-77 -220 -108 -82 -33 -236 -78 -311 -90 -19 -3 -44 -8 -55 -10 -124 -24 -429
-22 -550 4 -112 25 -220 -3 -296 -77 -40 -38 -50 -58 -105 -208 -120 -332
-309 -601 -557 -792 -64 -49 -79 -55 -119 -41 l-28 10 0 960 c0 712 -3 971
-12 1002 -43 150 -199 240 -348 202z m-2840 -1296 c204 -137 483 -254 721
-305 128 -28 192 -37 329 -50 67 -6 307 -7 337 -1 19 4 30 -12 92 -137 120
-244 249 -429 427 -609 l87 -88 -80 -84 c-93 -98 -173 -214 -235 -341 -39 -81
-83 -198 -94 -249 -2 -10 -6 -21 -8 -23 -5 -5 -180 114 -506 344 -41 29 -82
57 -90 63 -8 6 -98 69 -200 140 -102 71 -236 164 -298 207 -62 43 -120 84
-130 91 -36 27 -180 127 -247 173 -134 90 -257 96 -364 19 -102 -74 -145 -208
-105 -327 24 -72 72 -123 190 -204 134 -92 143 -99 342 -239 90 -63 175 -123
190 -132 35 -23 54 -36 112 -78 27 -19 108 -75 180 -125 72 -49 137 -95 143
-100 7 -6 67 -49 135 -95 355 -245 659 -459 669 -473 17 -23 43 -101 35 -108
-4 -3 -35 -12 -69 -18 -143 -27 -301 -88 -432 -166 l-75 -44 -35 18 c-96 48
-285 108 -438 140 -166 34 -269 43 -486 45 l-169 1 -13 32 c-66 156 -206 397
-296 508 -185 227 -382 403 -589 527 -58 34 -110 66 -116 70 -8 6 -7 33 3 95
23 140 23 453 1 608 -22 155 -56 300 -102 430 l-33 95 26 1 c107 3 346 57 513
115 139 48 381 170 503 253 55 37 105 65 110 63 6 -3 35 -22 65 -42z m6190
-138 c207 -111 460 -197 675 -231 39 -6 81 -13 95 -15 14 -3 36 -5 50 -5 l25
-1 -41 -127 c-40 -122 -77 -277 -89 -373 -19 -155 -22 -201 -20 -345 3 -163
10 -258 25 -329 5 -22 7 -43 5 -47 -3 -3 -45 -30 -95 -58 -279 -161 -540 -413
-727 -703 -60 -92 -172 -301 -191 -357 l-10 -30 -134 3 c-196 3 -432 -20 -583
-58 -155 -40 -309 -91 -383 -130 -28 -14 -32 -14 -76 15 -82 51 -184 99 -290
134 -105 35 -117 38 -199 51 -39 5 -47 10 -42 23 4 9 11 34 17 57 10 38 22 49
147 135 74 52 164 115 200 140 37 25 208 145 381 266 173 121 343 239 378 264
35 24 83 58 107 74 261 180 666 466 690 487 17 15 44 51 61 80 25 46 29 63 29
133 0 67 -5 88 -27 131 -75 143 -247 198 -388 125 -26 -14 -486 -331 -645
-445 -23 -17 -701 -489 -729 -508 -10 -7 -48 -34 -85 -60 -36 -27 -68 -48 -71
-48 -3 0 -20 45 -37 99 -39 122 -96 239 -168 346 -58 85 -75 106 -164 197
l-55 58 85 86 c104 107 102 104 169 189 92 116 177 253 256 412 67 134 78 151
97 147 25 -5 278 -5 322 0 17 2 65 6 108 10 298 28 664 157 932 330 l97 63
102 -67 c55 -37 144 -91 196 -118z m-3098 -1301 c182 -40 371 -174 479 -339
96 -145 136 -297 126 -479 -13 -255 -141 -476 -357 -618 -136 -89 -265 -127
-430 -129 -208 -1 -405 81 -557 233 -76 75 -113 128 -158 224 -50 104 -67 177
-72 307 -4 95 -1 131 16 205 21 86 104 275 121 275 5 0 11 8 14 18 5 15 81 96
139 147 76 68 238 143 347 161 19 3 37 8 39 10 8 8 247 -4 293 -15z m-1072
-1886 c250 -64 460 -251 549 -489 122 -327 14 -702 -264 -913 -197 -150 -482
-199 -715 -122 -331 108 -552 409 -551 749 0 107 6 148 32 232 91 296 341 512
649 561 56 9 239 -2 300 -18z m2160 0 c284 -75 507 -293 575 -562 25 -99 26
-103 26 -208 3 -442 -367 -803 -811 -790 -446 13 -793 390 -767 833 7 107 6
103 31 186 66 221 241 415 456 506 137 57 350 73 490 35z"/>
</g>
</svg>
