<?xml version="1.0" encoding="utf-8"?>
<!-- Generator: Adobe Illustrator 25.0.0, SVG Export Plug-In . SVG Version: 6.00 Build 0)  -->
<svg version="1.1" id="Capa_1" xmlns="http://www.w3.org/2000/svg" xmlns:xlink="http://www.w3.org/1999/xlink" x="0px" y="0px"
	 viewBox="0 0 512 512" style="enable-background:new 0 0 512 512;" xml:space="preserve">
<g>
	<path class="st0" d="M479.9,167.7L328.6,65.8c-11.5-7.8-27.2-4.7-35,6.8L259.7,123c-5.9,8.7-5.5,19.8,0,28.1l-66.4,98.6l-60.4-11.7
		c-50.6-10-100,23-110.1,73.6c-7.4,37.2,8.1,74.8,39.5,95.9l0.3,0.2c10.2,6.8,21.6,11.5,33.8,14l136.3,27.1
		c36.9,7.3,74.4-8,95.6-39.1l98.4-146c9.7,2,20.2-1.8,26.1-10.6l33.9-50.4C494.5,191.2,491.4,175.5,479.9,167.7L479.9,167.7z
		 M314.6,86.9l151.1,101.8l-33.8,50.2L280.8,137L314.6,86.9z M253.8,205.1l14.1,25.8c1,1.8,2.4,3.3,4,4.4c1.7,1.1,3.6,1.8,5.6,2.1
		l42.1,4.9l20.3,37.2c2,3.6,5.6,6,9.6,6.5l29.2,3.4l-14.1,21l-35.7-4.1L308.7,269c-2-3.6-5.6-6-9.6-6.5l-42.1-4.9l-17.2-31.5
		L253.8,205.1z M394.8,265.7l-35.7-4.1l-20.3-37.2c-2-3.6-5.6-6-9.6-6.5L287,213l-17.2-31.5l9.9-14.7l125,84.2L394.8,265.7
		L394.8,265.7z M47.6,316.5c5.2-26.4,25.2-46.3,49.7-52.8c6.2,19.8,7.2,41,2.9,63.3c-4.3,22.2-13.2,41.6-26.3,57.6
		C52.7,368.9,42.5,342.5,47.6,316.5L47.6,316.5z M237.7,423.9l-136.3-27.1c-1.4-0.3-2.8-0.6-4.1-1c13.8-18.3,23.1-39.8,27.8-64
		c4.7-24.3,4.1-47.7-1.9-69.8c1.6,0.2,3.2,0.4,4.8,0.8l68.7,13.3c5,1,10.1-1.1,12.9-5.4l14.2-21l14.1,25.8c2,3.6,5.6,6,9.7,6.5
		l42.1,4.9l20.3,37.2c1,1.8,2.4,3.3,4,4.4s3.6,1.8,5.6,2.1l29.2,3.4l-41.4,61.4C291.9,418,264.6,429.2,237.7,423.9L237.7,423.9z"/>
</g>
</svg>
