<?xml version="1.0" encoding="utf-8"?>
<!-- Generator: Adobe Illustrator 25.0.0, SVG Export Plug-In . SVG Version: 6.00 Build 0)  -->
<svg version="1.1" id="Layer_3" xmlns="http://www.w3.org/2000/svg" xmlns:xlink="http://www.w3.org/1999/xlink" x="0px" y="0px"
	 viewBox="0 0 512 512" style="enable-background:new 0 0 512 512;" xml:space="preserve">
<style type="text/css">
	.st0{fill:#E9F3F5;}
</style>
<g>
	<path class="st0" d="M280,264v-19.1l20.4,10.2l7.2-14.3l-19.7-9.8l12.5-8.4l-8.9-13.3l-20.1,13.4l-14.8-7.4l27.5-16.5l-8.2-13.7
		l-36.2,21.7l-15-7.5l27.5-16.5c2.4-1.4,3.9-4,3.9-6.8s-1.5-5.4-3.9-6.9l-27.5-16.5l15-7.5l36.2,21.7l8.2-13.7l-27.5-16.5l14.8-7.4
		l20.1,13.4l8.9-13.3l-12.5-8.4l19.7-9.8l-7.2-14.3L280,107.1V88h-16v27.1l-16,8V88h-16v43.1l-16,8V96c0-3-1.6-5.7-4.2-7.1
		c-2.6-1.4-5.8-1.2-8.2,0.4L168,113.1V91.8l45.1-37.6l-10.2-12.3L168,70.9V51.3l21.7-21.7l-11.3-11.3L168,28.7V16h-16v12.7
		l-10.3-10.3l-11.3,11.3L152,51.3v19.6l-34.9-29.1l-10.2,12.3L152,91.8v21.3l-35.6-23.7c-2.5-1.6-5.6-1.8-8.2-0.4
		c-2.6,1.4-4.2,4.1-4.2,7.1v43.1l-16-8V88H72v35.1l-16-8V88H40v19.1L19.6,96.8l-7.2,14.3l19.7,9.8l-12.5,8.4l8.9,13.3l20.1-13.4
		l14.8,7.4l-27.5,16.5l8.2,13.7l36.2-21.7l15,7.5l-27.5,16.5c-2.4,1.4-3.9,4-3.9,6.8s1.5,5.4,3.9,6.9l27.5,16.5l-15,7.5l-36.2-21.7
		l-8.2,13.7l27.5,16.5l-14.8,7.4l-20.1-13.4l-8.9,13.3l12.5,8.4l-19.7,9.8l7.2,14.3L40,244.9V264h16v-27.1l16-8V264h16v-43.1l16-8
		V256c0,3,1.6,5.7,4.2,7.1c2.6,1.4,5.8,1.2,8.2-0.4l35.6-23.7v21.3l-45.1,37.6l10.2,12.3l34.9-29.1v19.6l-21.7,21.7l11.3,11.3
		l10.3-10.3V336h16v-12.7l10.3,10.3l11.3-11.3L168,300.7v-19.6l34.9,29.1l10.2-12.3L168,260.2v-21.3l35.6,23.7
		c1.3,0.9,2.9,1.3,4.4,1.3c1.3,0,2.6-0.3,3.8-0.9c2.6-1.4,4.2-4.1,4.2-7.1v-43.1l16,8V264h16v-35.1l16,8V264L280,264z M232.5,176
		l-24.8,14.9L177.9,176l29.8-14.9L232.5,176z M200,111v36.1l-32,16v-30.8L200,111z M120,111l32,21.3v30.8l-32-16V111z M87.5,176
		l24.8-14.9l29.8,14.9l-29.8,14.9L87.5,176z M120,241v-36.1l32-16v30.8L120,241z M200,241l-32-21.3v-30.8l32,16V241z"/>
	<path class="st0" d="M492.4,398.7l-8.9-13.3l-22.5,15l-19.3-8.3l17.8-8.9c2.7-1.4,4.4-4.1,4.4-7.2s-1.7-5.8-4.4-7.2l-17.8-8.9
		l19.3-8.3l22.5,15l8.9-13.3l-13.8-9.2l20.5-8.8l-6.3-14.7l-20.8,8.9V312h-16v24.4l-24,10.3V320c0-2.7-1.3-5.1-3.5-6.6
		c-2.2-1.5-5-1.8-7.5-0.8l-29,11.6v-23.2l27.6-13.8l-7.2-14.3L392,283.1V256h-16v27.1l-20.4-10.2l-7.2,14.3l27.6,13.8v23.2l-29-11.6
		c-2.4-1-5.2-0.7-7.5,0.8c-2.2,1.5-3.5,4-3.5,6.6v26.7l-24-10.3V312h-16v17.6l-20.8-8.9l-6.3,14.7l20.5,8.8l-13.8,9.2l8.9,13.3
		l22.5-15l19.3,8.3l-17.8,8.9c-2.7,1.4-4.4,4.1-4.4,7.2s1.7,5.8,4.4,7.2l17.8,8.9l-19.3,8.3l-22.5-15l-8.9,13.3l13.8,9.2l-20.5,8.8
		l6.3,14.7l20.8-8.9V440h16v-24.4l24-10.3V432c0,2.7,1.3,5.1,3.5,6.6c1.3,0.9,2.9,1.4,4.5,1.4c1,0,2-0.2,3-0.6l29-11.6v23.2
		l-27.6,13.8l7.2,14.3l20.4-10.2V496h16v-27.1l20.4,10.2l7.2-14.3L392,451.1v-23.2l29,11.6c1,0.4,2,0.6,3,0.6c1.6,0,3.1-0.5,4.5-1.4
		c2.2-1.5,3.5-4,3.5-6.6v-26.7l24,10.3V440h16v-17.6l20.8,8.9l6.3-14.7l-20.5-8.8L492.4,398.7z M438.1,376l-15.6,7.8l-18.2-7.8
		l18.2-7.8L438.1,376z M416,331.8v21.8l-24,10.3v-22.5L416,331.8z M352,331.8l24,9.6v22.5l-24-10.3V331.8z M329.9,376l15.6-7.8
		l18.2,7.8l-18.2,7.8L329.9,376z M352,420.2v-21.8l24-10.3v22.5L352,420.2z M416,420.2l-24-9.6v-22.5l24,10.3V420.2z"/>
	<path class="st0" d="M370.7,129.9l11.3,11.3l25.9-25.9V152h16v-36.7l25.9,25.9l11.3-11.3L435.3,104H472V88h-36.7l25.9-25.9
		l-11.3-11.3L424,76.7V40h-16v36.7l-25.9-25.9l-11.3,11.3L396.7,88H360v16h36.7L370.7,129.9z"/>
	<path class="st0" d="M141.3,382.1l-11.3-11.3L104,396.7V360H88v36.7l-25.9-25.9l-11.3,11.3L76.7,408H40v16h36.7l-25.9,25.9
		l11.3,11.3L88,435.3V472h16v-36.7l25.9,25.9l11.3-11.3L115.3,424H152v-16h-36.7L141.3,382.1z"/>
	<circle class="st0" cx="336" cy="176" r="16"/>
	<circle class="st0" cx="456" cy="256" r="16"/>
	<circle class="st0" cx="216" cy="416" r="16"/>
	<circle class="st0" cx="56" cy="312" r="16"/>
</g>
</svg>
