<?xml version="1.0" encoding="utf-8"?>
<!-- Generator: Adobe Illustrator 25.0.0, SVG Export Plug-In . SVG Version: 6.00 Build 0)  -->
<svg version="1.1" id="Capa_1" xmlns="http://www.w3.org/2000/svg" xmlns:xlink="http://www.w3.org/1999/xlink" x="0px" y="0px"
	 viewBox="0 0 512 512" style="enable-background:new 0 0 512 512;" xml:space="preserve">
<g>
	<path class="st0" d="M62.9,110.1c-7.6,4.3-9.6,13.4-5.7,20.3c1.1,2.1,17.4,34.5-4.6,75.9c-3.5,6.7-1.6,14.9,4.6,19.3
		C72,236,81.1,248,86.6,258.8C75,261.9,64.1,268,55,277.1c-27.8,27.8-27.8,72.9,0,100.6c16.1,16.1,38.1,22.8,59.2,20.2
		c-2.6,21,4.1,43.1,20.2,59.2c27.7,27.7,72.9,27.7,100.6,0c9.1-9.1,15.2-20.1,18.3-31.7c10.8,5.5,22.7,14.6,33.2,29.5
		c4.4,6.2,12.6,8.1,19.3,4.6c41.4-22.1,73.9-5.7,75.9-4.6c6.8,3.9,15.9,1.9,20.3-5.7c23.3-40.7,59.2-44.1,61.6-44.3
		c15.1-0.6,19.9-20.7,6.6-28c-2-1.2-32.6-20.3-35.1-67.1c-0.5-8.7-7.7-14.6-15.5-14.2c-2.3,0-38.7,0.1-65.7-38.2
		c-4.4-6.2-12.6-8.1-19.3-4.6c-23.4,12.5-43.9,12.8-58.6,10.1c-0.7-1.2-1.4-2.4-2.1-3.5l69.3-69.3c5.9-5.9,5.9-15.4,0-21.2
		c-5.9-5.9-15.3-5.8-21.2,0l-69.3,69.3c-1.2-0.7-2.3-1.4-3.5-2.1c-2.7-14.6-2.4-35.1,10.1-58.6c3.5-6.7,1.6-14.9-4.6-19.3
		c-38.3-27.1-38.2-63.4-38.2-65.7c0.4-7.8-5.4-15.1-14.2-15.5c-46.8-2.5-65.9-33.1-67.1-35.1c-7.3-13.2-27.4-8.5-28,6.6
		C107,50.8,103.6,86.7,62.9,110.1L62.9,110.1z M76.1,356.5c-16-16-16-42.2,0-58.2c16.1-16.1,42.2-16.1,58.2,0c16,16,16,42.2,0,58.2
		S92.2,372.5,76.1,356.5L76.1,356.5z M243.1,327.1c-16.1,16.1-42.2,16.1-58.2,0c-16-16-16-42.2,0-58.2s42.2-16.1,58.2,0
		S259.2,311,243.1,327.1z M155.5,435.9c-16-16-16-42.2,0-58.2c16.1-16.1,42.2-16.1,58.2,0c16,16,16,42.2,0,58.2
		S171.5,451.9,155.5,435.9L155.5,435.9z M337.1,284.7c2.2,2.6,4.4,5,6.7,7.2c22.6,22.6,47.5,30.1,62.7,32.5
		c4,26.6,15.2,45.6,25.9,58.3c-15.2,6.5-33.8,18.5-49.3,40.5c-16.1-5.1-45.4-10-79.8,4.4c-16.1-18.7-33.9-28.8-48.7-34.3
		c-2-10.5-6.4-20.6-13.2-29.5c2-0.8,3.9-1.7,5.8-2.7l115.8,20.6c8.2,1.4,15.9-4,17.4-12.1c1.5-8.2-4-15.9-12.1-17.4l-93.6-16.6
		c7.8-12.6,11.3-27.1,10.5-41.3C299.4,294.7,317.4,292.9,337.1,284.7L337.1,284.7z M187.6,105.6c2.6,16.7,11.4,45.1,39.7,69.4
		c-8.2,19.7-10,37.7-9.3,52.1c-14.3-0.8-28.8,2.7-41.3,10.5L160,143.9c-1.4-8.2-9.2-13.6-17.4-12.1s-13.6,9.2-12.1,17.4L151,264.9
		c-1,1.9-1.9,3.8-2.7,5.8c-8.9-6.8-19-11.2-29.5-13.2c-5.5-14.8-15.6-32.6-34.3-48.7c14.4-34.4,9.5-63.7,4.4-79.8
		c21.9-15.5,33.9-34.1,40.5-49.3C142,90.4,161,101.6,187.6,105.6L187.6,105.6z"/>
</g>
</svg>
