<?xml version="1.0" encoding="utf-8"?>
<!-- Generator: Adobe Illustrator 21.1.0, SVG Export Plug-In . SVG Version: 6.00 Build 0)  -->
<svg version="1.1" id="Capa_1" xmlns="http://www.w3.org/2000/svg" xmlns:xlink="http://www.w3.org/1999/xlink" x="0px" y="0px"
	 viewBox="0 0 414.2 512" style="enable-background:new 0 0 414.2 512;" xml:space="preserve" class="svg-map">
<g>
	<g>
		<path d="M377.1,89C338,32.5,276,0,207.1,0S76.3,32.5,37.2,89c-38.9,56.3-47.9,127.5-24.1,190.5c6.4,17.2,16.5,33.9,30,49.5
			l150.4,176.6c3.4,4,8.4,6.3,13.6,6.3s10.2-2.3,13.6-6.3l150.3-176.6c13.6-15.7,23.7-32.4,30-49.5C424.9,216.6,416,145.3,377.1,89z
			 M367.6,267.1c-4.9,13.2-12.8,26.2-23.6,38.7c0,0-0.1,0.1-0.1,0.1L207.1,466.5L70.3,305.8c-10.8-12.5-18.7-25.5-23.7-38.8
			c-19.7-52.1-12.2-111,20-157.6c32.3-46.8,83.5-73.6,140.5-73.6c57,0,108.2,26.8,140.5,73.6C379.8,156,387.3,214.9,367.6,267.1z"/>
	</g>
</g>
<g>
	<g>
		<path d="M207.1,106.2c-55.3,0-100.3,45-100.3,100.3s45,100.3,100.3,100.3s100.3-45,100.3-100.3
			C307.4,151.2,262.4,106.2,207.1,106.2z M207.1,270.9c-35.5,0-64.4-28.9-64.4-64.4s28.9-64.4,64.4-64.4s64.4,28.9,64.4,64.4
			S242.7,270.9,207.1,270.9z"/>
	</g>
</g>
</svg>
