<?xml version="1.0" encoding="utf-8"?>
<!-- Generator: Adobe Illustrator 25.0.0, SVG Export Plug-In . SVG Version: 6.00 Build 0)  -->
<svg version="1.1" id="Calque_1" xmlns="http://www.w3.org/2000/svg" xmlns:xlink="http://www.w3.org/1999/xlink" x="0px" y="0px"
	 viewBox="0 0 24 24" style="enable-background:new 0 0 24 24;" xml:space="preserve" class="svg-play">
<g>
	<path class="st0" d="M12,22.5C6.2,22.5,1.5,17.8,1.5,12C1.5,6.2,6.2,1.5,12,1.5c5.8,0,10.5,4.7,10.5,10.5
		C22.5,17.8,17.8,22.5,12,22.5z M12,2.5c-5.2,0-9.5,4.3-9.5,9.5s4.3,9.5,9.5,9.5s9.5-4.3,9.5-9.5S17.2,2.5,12,2.5z"/>
</g>
<g>
	<path class="st0" d="M9.5,16.4V7.6l3.8,2.3L17,12l-3.8,2.1L9.5,16.4z M10.5,9.4v5.2l2.2-1.3L15,12l-2.2-1.3L10.5,9.4z"/>
</g>
</svg>
